<svg xmlns="http://www.w3.org/2000/svg" viewBox="0 0 53.99328 37.79529">
  <path fill="black" fill-rule="evenodd" d="M8.12011,19.79753 L8.12775,19.94752 L8.13657,20.0972 L8.14654,20.24657 L8.15767,20.39563 L8.16996,20.54436 L8.1834,20.69276 L8.19798,20.84084 L8.2137,20.98858 L8.23056,21.13598 L8.24855,21.28304 L8.26766,21.42976 L8.2879,21.57611 L8.30926,21.72212 L8.33172,21.86776 L8.3553,22.01303 L8.37999,22.15794 L8.40577,22.30247 L8.43265,22.44662 L8.46061,22.59038 L8.48967,22.73376 L8.51981,22.87675 L8.55102,23.01934 L8.58331,23.16152 L8.61667,23.3033 L8.65109,23.44468 L8.68657,23.58563 L8.72311,23.72617 L8.76069,23.86628 L8.79933,24.00596 L8.839,24.14521 L8.87971,24.28403 L8.92146,24.4224 L8.96423,24.56032 L9.00803,24.6978 L9.05284,24.83481 L9.09868,24.97137 L9.14552,25.10747 L9.19337,25.24309 L9.24222,25.37825 L9.29206,25.51292 L9.3429,25.64711 L9.39473,25.78082 L9.44754,25.91403 L9.50133,26.04675 L9.55609,26.17897 L9.61183,26.31069 L9.66853,26.44189 L9.72619,26.57259 L9.78481,26.70276 L9.84438,26.83241 L9.9049,26.96154 L9.96636,27.09013 L10.02876,27.21819 L10.0921,27.3457 L10.15636,27.47268 L10.22155,27.5991 L10.28766,27.72497 L10.35469,27.85028 L10.42263,27.97503 L10.49148,28.09921 L10.56123,28.22282 L10.63188,28.34585 L10.70342,28.4683 L10.77586,28.59017 L10.84917,28.71145 L10.92337,28.83213 L10.99845,28.95222 L11.07439,29.0717 L11.15121,29.19057 L11.22889,29.30883 L11.30742,29.42648 L11.38681,29.54351 L11.46705,29.65991 L11.54813,29.77568 L11.63005,29.89081 L11.71281,30.00531 L11.7964,30.11916 L11.88082,30.23237 L11.96606,30.34492 L12.05212,30.45682 L12.13899,30.56805 L12.22667,30.67862 L12.31516,30.78852 L12.40444,30.89775 L12.49453,31.00629 L12.5854,31.11416 L12.67706,31.22133 L12.7695,31.32781 L12.86272,31.4336 L12.95671,31.53868 L13.05147,31.64306 L13.147,31.74673 L13.24328,31.84968 L13.34032,31.95191 L13.43811,32.05342 L13.53665,32.1542 L13.63593,32.25425 L13.73595,32.35356 L13.8367,32.45213 L13.93818,32.54995 L14.04038,32.64702 L14.1433,32.74334 L14.24694,32.83889 L14.35129,32.93369 L14.45635,33.02771 L14.5621,33.12096 L14.66855,33.21344 L14.7757,33.30513 L14.88353,33.39603 L14.99205,33.48615 L15.10125,33.57547 L15.21112,33.66398 L15.32166,33.7517 L15.43287,33.8386 L15.54474,33.9247 L15.65727,34.00997 L15.77045,34.09442 L15.88427,34.17805 L15.99874,34.26084 L16.11385,34.3428 L16.2296,34.42392 L16.34597,34.50419 L16.46297,34.58361 L16.58059,34.66218 L16.69883,34.7399 L16.81768,34.81674 L16.93714,34.89273 L17.0572,34.96784 L17.17786,35.04207 L17.29911,35.11543 L17.42095,35.1879 L17.54338,35.25948 L17.66639,35.33016 L17.78997,35.39995 L17.91413,35.46884 L18.03886,35.53681 L18.16414,35.60388 L18.28999,35.67003 L18.41639,35.73526 L18.54334,35.79956 L18.67084,35.86293 L18.79887,35.92537 L18.92744,35.98687 L19.05654,36.04743 L19.18617,36.10704 L19.31633,36.1657 L19.447,36.2234 L19.57818,36.28014 L19.70988,36.33592 L19.84207,36.39072 L19.97477,36.44455 L20.10797,36.4974 L20.24165,36.54927 L20.37583,36.60015 L20.51048,36.65004 L20.64561,36.69893 L20.78122,36.74682 L20.9173,36.7937 L21.05384,36.83957 L21.19084,36.88443 L21.32829,36.92827 L21.4662,36.97109 L21.60455,37.01287 L21.74334,37.05363 L21.88258,37.09335 L22.02224,37.13202 L22.16234,37.16965 L22.30286,37.20623 L22.44379,37.24176 L22.58515,37.27622 L22.72691,37.30962 L22.86908,37.34195 L23.01165,37.37321 L23.15462,37.4034 L23.29799,37.4325 L23.44174,37.46051 L23.58587,37.48743 L23.73039,37.51326 L23.87528,37.53799 L24.02054,37.56161 L24.16616,37.58413 L24.31215,37.60553 L24.45849,37.62581 L24.60519,37.64497 L24.75224,37.66301 L24.89962,37.67991 L25.04735,37.69568 L25.19541,37.71031 L25.34381,37.72379 L25.49252,37.73613 L25.64156,37.74731 L25.79092,37.75733 L25.94059,37.76619 L26.09057,37.77389 L26.24085,37.78041 L26.39142,37.78576 L26.5423,37.78992 L26.69346,37.7929 L26.84491,37.7947 L26.99664,37.79529 L27.14837,37.7947 L27.29982,37.7929 L27.45098,37.78992 L27.60185,37.78576 L27.75243,37.78041 L27.90271,37.77389 L28.05269,37.76619 L28.20236,37.75733 L28.35171,37.74731 L28.50075,37.73613 L28.64947,37.72379 L28.79786,37.71031 L28.94593,37.69568 L29.09365,37.67991 L29.24104,37.66301 L29.38809,37.64497 L29.53478,37.62581 L29.68113,37.60553 L29.82711,37.58413 L29.97274,37.56161 L30.118,37.53799 L30.26289,37.51326 L30.4074,37.48743 L30.55154,37.46051 L30.69529,37.4325 L30.83865,37.4034 L30.98162,37.37321 L31.12419,37.34195 L31.26636,37.30962 L31.40813,37.27622 L31.54948,37.24176 L31.69042,37.20623 L31.83094,37.16965 L31.97103,37.13202 L32.1107,37.09335 L32.24993,37.05363 L32.38873,37.01287 L32.52708,36.97109 L32.66499,36.92827 L32.80244,36.88443 L32.93944,36.83957 L33.07598,36.7937 L33.21206,36.74682 L33.34766,36.69893 L33.4828,36.65004 L33.61745,36.60015 L33.75162,36.54927 L33.88531,36.4974 L34.0185,36.44455 L34.1512,36.39072 L34.2834,36.33592 L34.41509,36.28014 L34.54628,36.2234 L34.67695,36.1657 L34.8071,36.10704 L34.93673,36.04743 L35.06584,35.98687 L35.19441,35.92537 L35.32244,35.86293 L35.44994,35.79956 L35.57689,35.73526 L35.70329,35.67003 L35.82913,35.60388 L35.95442,35.53681 L36.07915,35.46884 L36.2033,35.39995 L36.32689,35.33016 L36.4499,35.25948 L36.57233,35.1879 L36.69417,35.11543 L36.81542,35.04207 L36.93608,34.96784 L37.05614,34.89273 L37.1756,34.81674 L37.29445,34.7399 L37.41269,34.66218 L37.53031,34.58361 L37.64731,34.50419 L37.76368,34.42392 L37.87942,34.3428 L37.99453,34.26084 L38.109,34.17805 L38.22283,34.09442 L38.33601,34.00997 L38.44854,33.9247 L38.56041,33.8386 L38.67161,33.7517 L38.78216,33.66398 L38.89203,33.57547 L39.00123,33.48615 L39.10974,33.39603 L39.21758,33.30513 L39.32472,33.21344 L39.43118,33.12096 L39.53693,33.02771 L39.64199,32.93369 L39.74634,32.83889 L39.84997,32.74334 L39.9529,32.64702 L40.0551,32.54995 L40.15658,32.45213 L40.25733,32.35356 L40.35735,32.25425 L40.45663,32.1542 L40.55516,32.05342 L40.65296,31.95191 L40.75,31.84968 L40.84628,31.74673 L40.94181,31.64306 L41.03657,31.53868 L41.13056,31.4336 L41.22378,31.32781 L41.31622,31.22133 L41.40788,31.11416 L41.49875,31.00629 L41.58883,30.89775 L41.67812,30.78852 L41.76661,30.67862 L41.85429,30.56805 L41.94116,30.45682 L42.02722,30.34492 L42.11246,30.23237 L42.19687,30.11916 L42.28047,30.00531 L42.36322,29.89081 L42.44515,29.77568 L42.52623,29.65991 L42.60647,29.54351 L42.68586,29.42648 L42.76439,29.30883 L42.84207,29.19057 L42.91888,29.0717 L42.99483,28.95222 L43.06991,28.83213 L43.1441,28.71145 L43.21742,28.59017 L43.28986,28.4683 L43.3614,28.34585 L43.43205,28.22282 L43.5018,28.09921 L43.57065,27.97503 L43.63859,27.85028 L43.70561,27.72497 L43.77173,27.5991 L43.83692,27.47268 L43.90118,27.3457 L43.96452,27.21819 L44.02692,27.09013 L44.08838,26.96154 L44.1489,26.83241 L44.20847,26.70276 L44.26709,26.57259 L44.32475,26.44189 L44.38145,26.31069 L44.43718,26.17897 L44.49195,26.04675 L44.54574,25.91403 L44.59855,25.78082 L44.65038,25.64711 L44.70122,25.51292 L44.75106,25.37825 L44.79991,25.24309 L44.84776,25.10747 L44.8946,24.97137 L44.94043,24.83481 L44.98525,24.6978 L45.02905,24.56032 L45.07182,24.4224 L45.11357,24.28403 L45.15428,24.14521 L45.19395,24.00596 L45.23259,23.86628 L45.27017,23.72617 L45.30671,23.58563 L45.34219,23.44468 L45.37661,23.3033 L45.40997,23.16152 L45.44226,23.01934 L45.47347,22.87675 L45.50361,22.73376 L45.53266,22.59038 L45.56063,22.44662 L45.58751,22.30247 L45.61329,22.15794 L45.63797,22.01303 L45.66155,21.86776 L45.68402,21.72212 L45.70538,21.57611 L45.72561,21.42976 L45.74473,21.28304 L45.76272,21.13598 L45.77958,20.98858 L45.7953,20.84084 L45.80988,20.69276 L45.82332,20.54436 L45.8356,20.39563 L45.84674,20.24657 L45.85671,20.0972 L45.86552,19.94752 L45.87317,19.79753 L53.99328,19.79753 L53.99328,17.99776 L45.87317,17.99776 L45.86552,17.84777 L45.85671,17.69809 L45.84674,17.54872 L45.8356,17.39967 L45.82332,17.25094 L45.80988,17.10253 L45.7953,16.95445 L45.77958,16.80671 L45.76272,16.65931 L45.74473,16.51225 L45.72561,16.36554 L45.70538,16.21918 L45.68402,16.07318 L45.66155,15.92754 L45.63797,15.78226 L45.61329,15.63736 L45.58751,15.49283 L45.56063,15.34868 L45.53266,15.20491 L45.50361,15.06153 L45.47347,14.91855 L45.44226,14.77596 L45.40997,14.63377 L45.37661,14.49199 L45.34219,14.35062 L45.30671,14.20966 L45.27017,14.06913 L45.23259,13.92901 L45.19395,13.78933 L45.15428,13.65008 L45.11357,13.51127 L45.07182,13.3729 L45.02905,13.23497 L44.98525,13.0975 L44.94043,12.96048 L44.8946,12.82392 L44.84776,12.68783 L44.79991,12.5522 L44.75106,12.41705 L44.70122,12.28237 L44.65038,12.14818 L44.59855,12.01447 L44.54574,11.88126 L44.49195,11.74854 L44.43718,11.61632 L44.38145,11.48461 L44.32475,11.3534 L44.26709,11.22271 L44.20847,11.09253 L44.1489,10.96288 L44.08838,10.83376 L44.02692,10.70516 L43.96452,10.57711 L43.90118,10.44959 L43.83692,10.32262 L43.77173,10.1962 L43.70561,10.07033 L43.63859,9.94502 L43.57065,9.82027 L43.5018,9.69609 L43.43205,9.57248 L43.3614,9.44944 L43.28986,9.32699 L43.21742,9.20512 L43.1441,9.08385 L43.06991,8.96316 L42.99483,8.84308 L42.91888,8.7236 L42.84207,8.60472 L42.76439,8.48646 L42.68586,8.36881 L42.60647,8.25179 L42.52623,8.13539 L42.44515,8.01962 L42.36322,7.90448 L42.28047,7.78999 L42.19687,7.67613 L42.11246,7.56293 L42.02722,7.45037 L41.94116,7.33848 L41.85429,7.22724 L41.76661,7.11667 L41.67812,7.00677 L41.58883,6.89755 L41.49875,6.789 L41.40788,6.68114 L41.31622,6.57396 L41.22378,6.46748 L41.13056,6.3617 L41.03657,6.25661 L40.94181,6.15223 L40.84628,6.04857 L40.75,5.94562 L40.65296,5.84338 L40.55516,5.74187 L40.45663,5.64109 L40.35735,5.54105 L40.25733,5.44174 L40.15658,5.34317 L40.0551,5.24534 L39.9529,5.14827 L39.84997,5.05196 L39.74634,4.9564 L39.64199,4.86161 L39.53693,4.76758 L39.43118,4.67433 L39.32472,4.58186 L39.21758,4.49017 L39.10974,4.39926 L39.00123,4.30915 L38.89203,4.21983 L38.78216,4.13131 L38.67161,4.0436 L38.56041,3.95669 L38.44854,3.8706 L38.33601,3.78532 L38.22283,3.70087 L38.109,3.61725 L37.99453,3.53445 L37.87942,3.4525 L37.76368,3.37138 L37.64731,3.2911 L37.53031,3.21168 L37.41269,3.13311 L37.29445,3.0554 L37.1756,2.97855 L37.05614,2.90257 L36.93608,2.82746 L36.81542,2.75322 L36.69417,2.67987 L36.57233,2.6074 L36.4499,2.53582 L36.32689,2.46513 L36.2033,2.39534 L36.07915,2.32646 L35.95442,2.25848 L35.82913,2.19141 L35.70329,2.12527 L35.57689,2.06004 L35.44994,1.99573 L35.32244,1.93236 L35.19441,1.86992 L35.06584,1.80842 L34.93673,1.74786 L34.8071,1.68825 L34.67695,1.62959 L34.54628,1.57189 L34.41509,1.51515 L34.2834,1.45938 L34.1512,1.40457 L34.0185,1.35074 L33.88531,1.29789 L33.75162,1.24602 L33.61745,1.19514 L33.4828,1.14526 L33.34766,1.09637 L33.21206,1.04848 L33.07598,1.00159 L32.93944,0.95572 L32.80244,0.91086 L32.66499,0.86702 L32.52708,0.82421 L32.38873,0.78242 L32.24993,0.74166 L32.1107,0.70195 L31.97103,0.66327 L31.83094,0.62564 L31.69042,0.58906 L31.54948,0.55354 L31.40813,0.51907 L31.26636,0.48567 L31.12419,0.45334 L30.98162,0.42208 L30.83865,0.3919 L30.69529,0.3628 L30.55154,0.33478 L30.4074,0.30786 L30.26289,0.28203 L30.118,0.25731 L29.97274,0.23368 L29.82711,0.21117 L29.68113,0.18977 L29.53478,0.16948 L29.38809,0.15032 L29.24104,0.13228 L29.09365,0.11538 L28.94593,0.09961 L28.79786,0.08498 L28.64947,0.0715 L28.50075,0.05917 L28.35171,0.04798 L28.20236,0.03796 L28.05269,0.0291 L27.90271,0.02141 L27.75243,0.01488 L27.60185,0.00954 L27.45098,0.00537 L27.29982,0.00239 L27.14837,0.0006 L26.99664,0 L26.84491,0.0006 L26.69346,0.00239 L26.5423,0.00537 L26.39142,0.00954 L26.24085,0.01488 L26.09057,0.02141 L25.94059,0.0291 L25.79092,0.03796 L25.64156,0.04798 L25.49252,0.05917 L25.34381,0.0715 L25.19541,0.08498 L25.04735,0.09961 L24.89962,0.11538 L24.75224,0.13228 L24.60519,0.15032 L24.45849,0.16948 L24.31215,0.18977 L24.16616,0.21117 L24.02054,0.23368 L23.87528,0.25731 L23.73039,0.28203 L23.58587,0.30786 L23.44174,0.33478 L23.29799,0.3628 L23.15462,0.3919 L23.01165,0.42208 L22.86908,0.45334 L22.72691,0.48567 L22.58515,0.51907 L22.44379,0.55354 L22.30286,0.58906 L22.16234,0.62564 L22.02224,0.66327 L21.88258,0.70195 L21.74334,0.74166 L21.60455,0.78242 L21.4662,0.82421 L21.32829,0.86702 L21.19084,0.91086 L21.05384,0.95572 L20.9173,1.00159 L20.78122,1.04848 L20.64561,1.09637 L20.51048,1.14526 L20.37583,1.19514 L20.24165,1.24602 L20.10797,1.29789 L19.97477,1.35074 L19.84207,1.40457 L19.70988,1.45938 L19.57818,1.51515 L19.447,1.57189 L19.31633,1.62959 L19.18617,1.68825 L19.05654,1.74786 L18.92744,1.80842 L18.79887,1.86992 L18.67084,1.93236 L18.54334,1.99573 L18.41639,2.06004 L18.28999,2.12527 L18.16414,2.19141 L18.03886,2.25848 L17.91413,2.32646 L17.78997,2.39534 L17.66639,2.46513 L17.54338,2.53582 L17.42095,2.6074 L17.29911,2.67987 L17.17786,2.75322 L17.0572,2.82746 L16.93714,2.90257 L16.81768,2.97855 L16.69883,3.0554 L16.58059,3.13311 L16.46297,3.21168 L16.34597,3.2911 L16.2296,3.37138 L16.11385,3.4525 L15.99874,3.53445 L15.88427,3.61725 L15.77045,3.70087 L15.65727,3.78532 L15.54474,3.8706 L15.43287,3.95669 L15.32166,4.0436 L15.21112,4.13131 L15.10125,4.21983 L14.99205,4.30915 L14.88353,4.39926 L14.7757,4.49017 L14.66855,4.58186 L14.5621,4.67433 L14.45635,4.76758 L14.35129,4.86161 L14.24694,4.9564 L14.1433,5.05196 L14.04038,5.14827 L13.93818,5.24534 L13.8367,5.34317 L13.73595,5.44174 L13.63593,5.54105 L13.53665,5.64109 L13.43811,5.74187 L13.34032,5.84338 L13.24328,5.94562 L13.147,6.04857 L13.05147,6.15223 L12.95671,6.25661 L12.86272,6.3617 L12.7695,6.46748 L12.67706,6.57396 L12.5854,6.68114 L12.49453,6.789 L12.40444,6.89755 L12.31516,7.00677 L12.22667,7.11667 L12.13899,7.22724 L12.05212,7.33848 L11.96606,7.45037 L11.88082,7.56293 L11.7964,7.67613 L11.71281,7.78999 L11.63005,7.90448 L11.54813,8.01962 L11.46705,8.13539 L11.38681,8.25179 L11.30742,8.36881 L11.22889,8.48646 L11.15121,8.60472 L11.07439,8.7236 L10.99845,8.84308 L10.92337,8.96316 L10.84917,9.08385 L10.77586,9.20512 L10.70342,9.32699 L10.63188,9.44944 L10.56123,9.57248 L10.49148,9.69609 L10.42263,9.82027 L10.35469,9.94502 L10.28766,10.07033 L10.22155,10.1962 L10.15636,10.32262 L10.0921,10.44959 L10.02876,10.57711 L9.96636,10.70516 L9.9049,10.83376 L9.84438,10.96288 L9.78481,11.09253 L9.72619,11.22271 L9.66853,11.3534 L9.61183,11.48461 L9.55609,11.61632 L9.50133,11.74854 L9.44754,11.88126 L9.39473,12.01447 L9.3429,12.14818 L9.29206,12.28237 L9.24222,12.41705 L9.19337,12.5522 L9.14552,12.68783 L9.09868,12.82392 L9.05284,12.96048 L9.00803,13.0975 L8.96423,13.23497 L8.92146,13.3729 L8.87971,13.51127 L8.839,13.65008 L8.79933,13.78933 L8.76069,13.92901 L8.72311,14.06913 L8.68657,14.20966 L8.65109,14.35062 L8.61667,14.49199 L8.58331,14.63377 L8.55102,14.77596 L8.51981,14.91855 L8.48967,15.06153 L8.46061,15.20491 L8.43265,15.34868 L8.40577,15.49283 L8.37999,15.63736 L8.3553,15.78226 L8.33172,15.92754 L8.30926,16.07318 L8.2879,16.21918 L8.26766,16.36554 L8.24855,16.51225 L8.23056,16.65931 L8.2137,16.80671 L8.19798,16.95445 L8.1834,17.10253 L8.16996,17.25094 L8.15767,17.39967 L8.14654,17.54872 L8.13657,17.69809 L8.12775,17.84777 L8.12011,17.99776 L0,17.99776 L0,19.79753 L8.12011,19.79753 Z M18.31764,23.79922 L18.34927,23.86189 L18.38152,23.92458 L18.41438,23.98727 L18.44785,24.04997 L18.48195,24.11266 L18.51667,24.17533 L18.55202,24.23798 L18.588,24.30058 L18.6246,24.36314 L18.66185,24.42565 L18.69972,24.48809 L18.73824,24.55045 L18.7774,24.61273 L18.81721,24.67491 L18.85766,24.737 L18.89876,24.79896 L18.94052,24.86081 L18.98293,24.92253 L19.026,24.9841 L19.06973,25.04552 L19.11412,25.10678 L19.15918,25.16787 L19.20491,25.22879 L19.25131,25.28951 L19.29839,25.35003 L19.34614,25.41035 L19.39457,25.47045 L19.44368,25.53032 L19.49348,25.58996 L19.54397,25.64935 L19.59515,25.70848 L19.64702,25.76735 L19.69959,25.82595 L19.75286,25.88426 L19.80682,25.94227 L19.86149,25.99999 L19.91687,26.05739 L19.97296,26.11447 L20.02976,26.17122 L20.08727,26.22763 L20.14551,26.28368 L20.20446,26.33938 L20.26413,26.39471 L20.32453,26.44966 L20.38566,26.50422 L20.44752,26.55838 L20.51011,26.61213 L20.57344,26.66547 L20.63751,26.71838 L20.70232,26.77086 L20.76788,26.82289 L20.83418,26.87446 L20.90123,26.92557 L20.96903,26.97621 L21.03759,27.02636 L21.10691,27.07602 L21.17698,27.12518 L21.24782,27.17383 L21.31943,27.22195 L21.39181,27.26954 L21.46495,27.3166 L21.53887,27.3631 L21.61357,27.40904 L21.68904,27.45442 L21.7653,27.49921 L21.84234,27.54342 L21.92017,27.58703 L21.99879,27.63004 L22.07821,27.67242 L22.15842,27.71418 L22.23942,27.75531 L22.32123,27.79579 L22.40384,27.83562 L22.48726,27.87478 L22.57149,27.91327 L22.65652,27.95107 L22.74238,27.98819 L22.82904,28.0246 L22.91653,28.0603 L23.00484,28.09528 L23.09398,28.12953 L23.18394,28.16304 L23.27474,28.1958 L23.36637,28.2278 L23.45883,28.25903 L23.55213,28.28948 L23.64628,28.31915 L23.74126,28.34802 L23.8371,28.37608 L23.93378,28.40333 L24.03131,28.42975 L24.1297,28.45534 L24.22895,28.48008 L24.32906,28.50397 L24.43003,28.52699 L24.53186,28.54915 L24.63457,28.57042 L24.73814,28.59079 L24.84259,28.61027 L24.94791,28.62883 L25.05412,28.64648 L25.1612,28.66319 L25.26917,28.67897 L25.37802,28.6938 L25.48777,28.70767 L25.59841,28.72057 L25.70994,28.73249 L25.82237,28.74342 L25.9357,28.75336 L26.04993,28.7623 L26.16507,28.77022 L26.28112,28.77711 L26.39808,28.78297 L26.51595,28.78778 L26.63474,28.79154 L26.75445,28.79424 L26.87508,28.79587 L26.99664,28.79641 L27.11819,28.79587 L27.23882,28.79424 L27.35853,28.79154 L27.47732,28.78778 L27.5952,28.78297 L27.71216,28.77711 L27.8282,28.77022 L27.94334,28.7623 L28.05758,28.75336 L28.17091,28.74342 L28.28334,28.73249 L28.39487,28.72057 L28.50551,28.70767 L28.61525,28.6938 L28.72411,28.67897 L28.83208,28.66319 L28.93916,28.64648 L29.04536,28.62883 L29.15069,28.61027 L29.25514,28.59079 L29.35871,28.57042 L29.46141,28.54915 L29.56325,28.52699 L29.66422,28.50397 L29.76433,28.48008 L29.86357,28.45534 L29.96196,28.42975 L30.0595,28.40333 L30.15618,28.37608 L30.25201,28.34802 L30.347,28.31915 L30.44114,28.28948 L30.53445,28.25903 L30.62691,28.2278 L30.71854,28.1958 L30.80933,28.16304 L30.8993,28.12953 L30.98843,28.09528 L31.07674,28.0603 L31.16423,28.0246 L31.2509,27.98819 L31.33675,27.95107 L31.42179,27.91327 L31.50602,27.87478 L31.58944,27.83562 L31.67205,27.79579 L31.75385,27.75531 L31.83486,27.71418 L31.91507,27.67242 L31.99448,27.63004 L32.0731,27.58703 L32.15093,27.54342 L32.22797,27.49921 L32.30423,27.45442 L32.37971,27.40904 L32.4544,27.3631 L32.52832,27.3166 L32.60147,27.26954 L32.67385,27.22195 L32.74545,27.17383 L32.81629,27.12518 L32.88637,27.07602 L32.95569,27.02636 L33.02424,26.97621 L33.09205,26.92557 L33.1591,26.87446 L33.2254,26.82289 L33.29095,26.77086 L33.35576,26.71838 L33.41983,26.66547 L33.48316,26.61213 L33.54576,26.55838 L33.60762,26.50422 L33.66874,26.44966 L33.72914,26.39471 L33.78882,26.33938 L33.84777,26.28368 L33.906,26.22763 L33.96352,26.17122 L34.02032,26.11447 L34.0764,26.05739 L34.13178,25.99999 L34.18645,25.94227 L34.24042,25.88426 L34.29369,25.82595 L34.34625,25.76735 L34.39813,25.70848 L34.4493,25.64935 L34.49979,25.58996 L34.54959,25.53032 L34.59871,25.47045 L34.64714,25.41035 L34.69489,25.35003 L34.74197,25.28951 L34.78837,25.22879 L34.8341,25.16787 L34.87916,25.10678 L34.92355,25.04552 L34.96728,24.9841 L35.01035,24.92253 L35.05276,24.86081 L35.09452,24.79896 L35.13562,24.737 L35.17607,24.67491 L35.21587,24.61273 L35.25503,24.55045 L35.29355,24.48809 L35.33143,24.42565 L35.36867,24.36314 L35.40528,24.30058 L35.44126,24.23798 L35.4766,24.17533 L35.51132,24.11266 L35.54542,24.04997 L35.5789,23.98727 L35.61176,23.92458 L35.644,23.86189 L35.67564,23.79922 L35.7302,23.68874 L35.78295,23.57919 L35.83392,23.47059 L35.88316,23.36294 L35.93068,23.25627 L35.97652,23.15057 L36.02072,23.04586 L36.0633,22.94216 L36.1043,22.83947 L36.14375,22.7378 L36.18168,22.63717 L36.21813,22.53758 L36.25312,22.43906 L36.28669,22.3416 L36.31887,22.24522 L36.3497,22.14993 L36.3792,22.05574 L36.40741,21.96267 L36.43436,21.87072 L36.46008,21.7799 L36.48461,21.69023 L36.50797,21.60172 L36.5302,21.51438 L36.55133,21.42822 L36.5714,21.34324 L36.59043,21.25947 L36.60846,21.17691 L36.62552,21.09558 L36.64164,21.01548 L36.65686,20.93663 L36.6712,20.85903 L36.6847,20.7827 L36.6974,20.70765 L36.70931,20.6339 L36.72049,20.56144 L36.73095,20.4903 L36.74073,20.42048 L36.74986,20.35199 L36.75838,20.28485 L36.76631,20.21907 L36.7737,20.15466 L36.78056,20.09163 L36.78694,20.02998 L36.79286,19.96974 L36.79836,19.91091 L36.80347,19.8535 L36.80823,19.79753 L44.07132,19.79753 L44.06379,19.9329 L44.05522,20.06799 L44.04561,20.20279 L44.03496,20.33729 L44.02328,20.4715 L44.01057,20.60541 L43.99684,20.73901 L43.98209,20.87231 L43.96632,21.00529 L43.94953,21.13795 L43.93174,21.2703 L43.91294,21.40232 L43.89315,21.53402 L43.87235,21.66538 L43.85057,21.79641 L43.82779,21.92709 L43.80403,22.05743 L43.77929,22.18743 L43.75357,22.31707 L43.72688,22.44635 L43.69922,22.57528 L43.67059,22.70384 L43.64101,22.83204 L43.61046,22.95986 L43.57896,23.0873 L43.54652,23.21437 L43.51313,23.34105 L43.4788,23.46735 L43.44353,23.59325 L43.40732,23.71876 L43.37019,23.84387 L43.33213,23.96857 L43.29316,24.09287 L43.25326,24.21675 L43.21245,24.34022 L43.17073,24.46328 L43.12811,24.5859 L43.08458,24.7081 L43.04016,24.82987 L42.99484,24.9512 L42.94864,25.0721 L42.90154,25.19255 L42.85357,25.31255 L42.80472,25.4321 L42.75499,25.5512 L42.7044,25.66983 L42.65294,25.78801 L42.60062,25.90572 L42.54744,26.02295 L42.4934,26.13971 L42.43852,26.25599 L42.38279,26.37179 L42.32622,26.4871 L42.26881,26.60193 L42.21056,26.71625 L42.15149,26.83008 L42.09159,26.9434 L42.03087,27.05622 L41.96933,27.16853 L41.90697,27.28032 L41.84381,27.39159 L41.77984,27.50234 L41.71507,27.61256 L41.64949,27.72226 L41.58313,27.83142 L41.51597,27.94004 L41.44803,28.04811 L41.37931,28.15564 L41.3098,28.26262 L41.23953,28.36905 L41.16848,28.47492 L41.09667,28.58022 L41.02409,28.68496 L40.95075,28.78913 L40.87666,28.89272 L40.80182,28.99574 L40.72624,29.09817 L40.64991,29.20002 L40.57284,29.30127 L40.49503,29.40194 L40.4165,29.502 L40.33724,29.60146 L40.25726,29.70032 L40.17655,29.79857 L40.09514,29.8962 L40.01301,29.99321 L39.93017,30.0896 L39.84663,30.18537 L39.7624,30.28051 L39.67746,30.37501 L39.59184,30.46887 L39.50553,30.5621 L39.41854,30.65467 L39.33086,30.7466 L39.24252,30.83787 L39.1535,30.92849 L39.06381,31.01844 L38.97346,31.10773 L38.88245,31.19635 L38.79079,31.2843 L38.69847,31.37157 L38.60551,31.45815 L38.5119,31.54405 L38.41766,31.62926 L38.32278,31.71378 L38.22726,31.7976 L38.13112,31.88072 L38.03436,31.96313 L37.93697,32.04484 L37.83897,32.12583 L37.74036,32.2061 L37.64115,32.28566 L37.54132,32.36448 L37.4409,32.44258 L37.33988,32.51995 L37.23827,32.59657 L37.13608,32.67246 L37.03329,32.7476 L36.92993,32.822 L36.826,32.89564 L36.72149,32.96852 L36.61641,33.04064 L36.51077,33.112 L36.40457,33.18259 L36.29781,33.2524 L36.1905,33.32144 L36.08264,33.3897 L35.97424,33.45717 L35.8653,33.52385 L35.75582,33.58975 L35.64581,33.65484 L35.53527,33.71913 L35.42421,33.78262 L35.31263,33.84531 L35.20053,33.90717 L35.08792,33.96823 L34.97479,34.02846 L34.86117,34.08786 L34.74704,34.14644 L34.63242,34.20419 L34.51731,34.2611 L34.40171,34.31717 L34.28562,34.37239 L34.16905,34.42677 L34.052,34.4803 L33.93449,34.53296 L33.8165,34.58477 L33.69805,34.63572 L33.57914,34.68579 L33.45977,34.735 L33.33995,34.78332 L33.21968,34.83077 L33.09896,34.87734 L32.97781,34.92301 L32.85621,34.9678 L32.73419,35.01168 L32.61173,35.05467 L32.48885,35.09676 L32.36555,35.13793 L32.24183,35.1782 L32.1177,35.21754 L31.99316,35.25597 L31.86821,35.29348 L31.74286,35.33006 L31.61712,35.3657 L31.49098,35.40041 L31.36446,35.43418 L31.23754,35.46701 L31.11025,35.49889 L30.98258,35.52982 L30.85453,35.55979 L30.72612,35.5888 L30.59734,35.61685 L30.4682,35.64394 L30.3387,35.67005 L30.20885,35.69518 L30.07864,35.71934 L29.9481,35.74251 L29.81721,35.7647 L29.68598,35.78589 L29.55442,35.80609 L29.42253,35.82529 L29.29031,35.84349 L29.15778,35.86068 L29.02492,35.87686 L28.89175,35.89202 L28.75827,35.90617 L28.62448,35.91929 L28.4904,35.93138 L28.35601,35.94245 L28.22133,35.95248 L28.08636,35.96147 L27.95111,35.96942 L27.81557,35.97632 L27.67975,35.98217 L27.54366,35.98696 L27.4073,35.9907 L27.27067,35.99337 L27.13379,35.99498 L26.99664,35.99552 L26.85949,35.99498 L26.7226,35.99337 L26.58598,35.9907 L26.44961,35.98696 L26.31352,35.98217 L26.17771,35.97632 L26.04217,35.96942 L25.90691,35.96147 L25.77195,35.95248 L25.63727,35.94245 L25.50288,35.93138 L25.36879,35.91929 L25.23501,35.90617 L25.10153,35.89202 L24.96836,35.87686 L24.8355,35.86068 L24.70296,35.84349 L24.57075,35.82529 L24.43886,35.80609 L24.3073,35.78589 L24.17607,35.7647 L24.04518,35.74251 L23.91463,35.71934 L23.78443,35.69518 L23.65458,35.67005 L23.52508,35.64394 L23.39594,35.61685 L23.26716,35.5888 L23.13874,35.55979 L23.0107,35.52982 L22.88303,35.49889 L22.75573,35.46701 L22.62882,35.43418 L22.50229,35.40041 L22.37616,35.3657 L22.25041,35.33006 L22.12507,35.29348 L22.00012,35.25597 L21.87558,35.21754 L21.75145,35.1782 L21.62773,35.13793 L21.50443,35.09676 L21.38155,35.05467 L21.25909,35.01168 L21.13707,34.9678 L21.01547,34.92301 L20.89432,34.87734 L20.7736,34.83077 L20.65333,34.78332 L20.53351,34.735 L20.41414,34.68579 L20.29523,34.63572 L20.17678,34.58477 L20.05879,34.53296 L19.94127,34.4803 L19.82423,34.42677 L19.70766,34.37239 L19.59157,34.31717 L19.47597,34.2611 L19.36085,34.20419 L19.24623,34.14644 L19.13211,34.08786 L19.01848,34.02846 L18.90536,33.96823 L18.79275,33.90717 L18.68065,33.84531 L18.56907,33.78262 L18.458,33.71913 L18.34747,33.65484 L18.23746,33.58975 L18.12798,33.52385 L18.01904,33.45717 L17.91063,33.3897 L17.80278,33.32144 L17.69547,33.2524 L17.58871,33.18259 L17.48251,33.112 L17.37687,33.04064 L17.27179,32.96852 L17.16728,32.89564 L17.06334,32.822 L16.95998,32.7476 L16.8572,32.67246 L16.755,32.59657 L16.65339,32.51995 L16.55238,32.44258 L16.45195,32.36448 L16.35213,32.28566 L16.25291,32.2061 L16.1543,32.12583 L16.0563,32.04484 L15.95892,31.96313 L15.86216,31.88072 L15.76602,31.7976 L15.6705,31.71378 L15.57562,31.62926 L15.48138,31.54405 L15.38777,31.45815 L15.29481,31.37157 L15.20249,31.2843 L15.11083,31.19635 L15.01982,31.10773 L14.92947,31.01844 L14.83978,30.92849 L14.75076,30.83787 L14.66241,30.7466 L14.57474,30.65467 L14.48775,30.5621 L14.40144,30.46887 L14.31581,30.37501 L14.23088,30.28051 L14.14664,30.18537 L14.06311,30.0896 L13.98027,29.99321 L13.89814,29.8962 L13.81673,29.79857 L13.73602,29.70032 L13.65604,29.60146 L13.57678,29.502 L13.49824,29.40194 L13.42044,29.30127 L13.34337,29.20002 L13.26704,29.09817 L13.19146,28.99574 L13.11661,28.89272 L13.04252,28.78913 L12.96919,28.68496 L12.89661,28.58022 L12.8248,28.47492 L12.75375,28.36905 L12.68347,28.26262 L12.61397,28.15564 L12.54525,28.04811 L12.4773,27.94004 L12.41015,27.83142 L12.34378,27.72226 L12.27821,27.61256 L12.21344,27.50234 L12.14947,27.39159 L12.08631,27.28032 L12.02395,27.16853 L11.96241,27.05622 L11.90169,26.9434 L11.84179,26.83008 L11.78272,26.71625 L11.72447,26.60193 L11.66706,26.4871 L11.61049,26.37179 L11.55476,26.25599 L11.49988,26.13971 L11.44584,26.02295 L11.39266,25.90572 L11.34034,25.78801 L11.28888,25.66983 L11.23828,25.5512 L11.18856,25.4321 L11.13971,25.31255 L11.09173,25.19255 L11.04464,25.0721 L10.99844,24.9512 L10.95312,24.82987 L10.9087,24.7081 L10.86517,24.5859 L10.82255,24.46328 L10.78083,24.34022 L10.74002,24.21675 L10.70012,24.09287 L10.66114,23.96857 L10.62309,23.84387 L10.58595,23.71876 L10.54975,23.59325 L10.51448,23.46735 L10.48015,23.34105 L10.44676,23.21437 L10.41431,23.0873 L10.38282,22.95986 L10.35227,22.83204 L10.32269,22.70384 L10.29406,22.57528 L10.2664,22.44635 L10.23971,22.31707 L10.21399,22.18743 L10.18925,22.05743 L10.16549,21.92709 L10.14271,21.79641 L10.12093,21.66538 L10.10013,21.53402 L10.08033,21.40232 L10.06154,21.2703 L10.04375,21.13795 L10.02696,21.00529 L10.01119,20.87231 L9.99644,20.73901 L9.9827,20.60541 L9.97,20.4715 L9.95832,20.33729 L9.94767,20.20279 L9.93806,20.06799 L9.92949,19.9329 L9.92196,19.79753 L17.18505,19.79753 L17.1898,19.8535 L17.19491,19.91091 L17.20042,19.96974 L17.20634,20.02998 L17.21272,20.09163 L17.21958,20.15466 L17.22697,20.21907 L17.2349,20.28485 L17.24342,20.35199 L17.25255,20.42048 L17.26233,20.4903 L17.27279,20.56144 L17.28396,20.6339 L17.29588,20.70765 L17.30858,20.7827 L17.32208,20.85903 L17.33642,20.93663 L17.35164,21.01548 L17.36776,21.09558 L17.38482,21.17691 L17.40285,21.25947 L17.42188,21.34324 L17.44195,21.42822 L17.46308,21.51438 L17.48531,21.60172 L17.50867,21.69023 L17.5332,21.7799 L17.55892,21.87072 L17.58587,21.96267 L17.61408,22.05574 L17.64358,22.14993 L17.67441,22.24522 L17.70659,22.3416 L17.74016,22.43906 L17.77515,22.53758 L17.8116,22.63717 L17.84953,22.7378 L17.88898,22.83947 L17.92998,22.94216 L17.97256,23.04586 L18.01676,23.15057 L18.0626,23.25627 L18.11012,23.36294 L18.15935,23.47059 L18.21033,23.57919 L18.26308,23.68874 L18.31764,23.79922 Z M44.07132,17.99776 L35.09563,17.99776 L35.09563,18.89765 L35.0956,18.90031 L35.09549,18.90824 L35.09524,18.9213 L35.0948,18.9394 L35.0941,18.96241 L35.09311,18.99023 L35.09176,19.02274 L35.09,19.05983 L35.08778,19.10137 L35.08504,19.14727 L35.08173,19.19741 L35.07779,19.25167 L35.07318,19.30994 L35.06783,19.3721 L35.0617,19.43805 L35.05473,19.50767 L35.04686,19.58085 L35.03804,19.65747 L35.02823,19.73741 L35.01736,19.82058 L35.00537,19.90685 L34.99223,19.99611 L34.97787,20.08824 L34.96223,20.18314 L34.94527,20.28069 L34.92694,20.38078 L34.90717,20.48328 L34.88591,20.5881 L34.86312,20.69512 L34.83872,20.80421 L34.81269,20.91528 L34.78495,21.0282 L34.75545,21.14287 L34.72414,21.25917 L34.69097,21.37698 L34.65589,21.4962 L34.61883,21.6167 L34.57974,21.73838 L34.53858,21.86113 L34.49529,21.98482 L34.4498,22.10935 L34.40208,22.2346 L34.35207,22.36046 L34.2997,22.48682 L34.24493,22.61356 L34.18771,22.74057 L34.12798,22.86774 L34.06568,22.99495 L34.03361,23.05852 L34.00098,23.12203 L33.9678,23.18548 L33.93403,23.24884 L33.89969,23.3121 L33.86474,23.37526 L33.8292,23.43829 L33.79304,23.50119 L33.75625,23.56395 L33.71883,23.62654 L33.68076,23.68896 L33.64203,23.75119 L33.60264,23.81322 L33.56257,23.87504 L33.52182,23.93664 L33.48037,23.998 L33.43821,24.0591 L33.39533,24.11995 L33.35172,24.18052 L33.30738,24.2408 L33.26229,24.30077 L33.21644,24.36043 L33.16982,24.41977 L33.12242,24.47876 L33.07423,24.5374 L33.02524,24.59568 L32.97544,24.65357 L32.92483,24.71107 L32.87338,24.76817 L32.82109,24.82485 L32.76795,24.8811 L32.71394,24.9369 L32.65907,24.99225 L32.60331,25.04713 L32.54666,25.10153 L32.48911,25.15543 L32.43065,25.20883 L32.37126,25.2617 L32.31095,25.31404 L32.24968,25.36583 L32.18747,25.41706 L32.12429,25.46772 L32.06013,25.5178 L31.99499,25.56728 L31.92886,25.61614 L31.86172,25.66439 L31.79356,25.71199 L31.72438,25.75895 L31.65417,25.80524 L31.58291,25.85086 L31.51059,25.89579 L31.43721,25.94002 L31.36274,25.98354 L31.2872,26.02633 L31.21055,26.06837 L31.1328,26.10967 L31.05393,26.1502 L30.97393,26.18995 L30.89279,26.22892 L30.8105,26.26707 L30.72706,26.30441 L30.64244,26.34092 L30.55665,26.37659 L30.46967,26.4114 L30.38148,26.44535 L30.29209,26.47841 L30.20147,26.51058 L30.10963,26.54184 L30.01654,26.57218 L29.92221,26.60159 L29.82661,26.63005 L29.72974,26.65756 L29.63158,26.68409 L29.53214,26.70964 L29.43139,26.73419 L29.32933,26.75773 L29.22595,26.78025 L29.12123,26.80173 L29.01517,26.82217 L28.90776,26.84154 L28.79898,26.85984 L28.68883,26.87705 L28.57729,26.89316 L28.46436,26.90816 L28.35002,26.92203 L28.23427,26.93477 L28.11709,26.94635 L27.99848,26.95677 L27.87842,26.96601 L27.7569,26.97406 L27.63392,26.9809 L27.50946,26.98653 L27.38351,26.99093 L27.25606,26.99409 L27.12711,26.996 L26.99664,26.99664 L26.86617,26.996 L26.73721,26.99409 L26.60977,26.99093 L26.48382,26.98653 L26.35936,26.9809 L26.23638,26.97406 L26.11486,26.96601 L25.9948,26.95677 L25.87619,26.94635 L25.75901,26.93477 L25.64325,26.92203 L25.52892,26.90816 L25.41599,26.89316 L25.30445,26.87705 L25.1943,26.85984 L25.08552,26.84154 L24.9781,26.82217 L24.87204,26.80173 L24.76733,26.78025 L24.66394,26.75773 L24.56188,26.73419 L24.46114,26.70964 L24.36169,26.68409 L24.26354,26.65756 L24.16667,26.63005 L24.07107,26.60159 L23.97673,26.57218 L23.88365,26.54184 L23.7918,26.51058 L23.70119,26.47841 L23.6118,26.44535 L23.52361,26.4114 L23.43663,26.37659 L23.35083,26.34092 L23.26622,26.30441 L23.18277,26.26707 L23.10049,26.22892 L23.01935,26.18995 L22.93935,26.1502 L22.86048,26.10967 L22.78273,26.06837 L22.70608,26.02633 L22.63053,25.98354 L22.55607,25.94002 L22.48269,25.89579 L22.41037,25.85086 L22.33911,25.80524 L22.26889,25.75895 L22.19971,25.71199 L22.13156,25.66439 L22.06442,25.61614 L21.99829,25.56728 L21.93315,25.5178 L21.86899,25.46772 L21.80581,25.41706 L21.7436,25.36583 L21.68233,25.31404 L21.62201,25.2617 L21.56263,25.20883 L21.50416,25.15543 L21.44661,25.10153 L21.38997,25.04713 L21.33421,24.99225 L21.27934,24.9369 L21.22533,24.8811 L21.17219,24.82485 L21.1199,24.76817 L21.06845,24.71107 L21.01783,24.65357 L20.96804,24.59568 L20.91905,24.5374 L20.87086,24.47876 L20.82346,24.41977 L20.77684,24.36043 L20.73099,24.30077 L20.6859,24.2408 L20.64155,24.18052 L20.59795,24.11995 L20.55507,24.0591 L20.51291,23.998 L20.47146,23.93664 L20.4307,23.87504 L20.39064,23.81322 L20.35125,23.75119 L20.31252,23.68896 L20.27445,23.62654 L20.23703,23.56395 L20.20024,23.50119 L20.16408,23.43829 L20.12853,23.37526 L20.09359,23.3121 L20.05924,23.24884 L20.02548,23.18548 L19.99229,23.12203 L19.95967,23.05852 L19.9276,22.99495 L19.8653,22.86774 L19.80557,22.74057 L19.74834,22.61356 L19.69358,22.48682 L19.64121,22.36046 L19.59119,22.2346 L19.54347,22.10935 L19.49799,21.98482 L19.45469,21.86113 L19.41353,21.73838 L19.37445,21.6167 L19.33739,21.4962 L19.3023,21.37698 L19.26913,21.25917 L19.23783,21.14287 L19.20833,21.0282 L19.18059,20.91528 L19.15455,20.80421 L19.13016,20.69512 L19.10736,20.5881 L19.08611,20.48328 L19.06634,20.38078 L19.048,20.28069 L19.03104,20.18314 L19.01541,20.08824 L19.00105,19.99611 L18.9879,19.90685 L18.97592,19.82058 L18.96505,19.73741 L18.95523,19.65747 L18.94642,19.58085 L18.93855,19.50767 L18.93158,19.43805 L18.92544,19.3721 L18.9201,19.30994 L18.91548,19.25167 L18.91155,19.19741 L18.90824,19.14727 L18.9055,19.10137 L18.90328,19.05983 L18.90152,19.02274 L18.90017,18.99023 L18.89917,18.96241 L18.89848,18.9394 L18.89803,18.9213 L18.89778,18.90824 L18.89767,18.90031 L18.89765,18.89765 L18.89765,17.99776 L9.92196,17.99776 L9.92949,17.86239 L9.93806,17.7273 L9.94767,17.59251 L9.95832,17.458 L9.97,17.32379 L9.9827,17.18989 L9.99644,17.05628 L10.01119,16.92299 L10.02696,16.79001 L10.04375,16.65734 L10.06154,16.52499 L10.08033,16.39297 L10.10013,16.26128 L10.12093,16.12991 L10.14271,15.99889 L10.16549,15.8682 L10.18925,15.73786 L10.21399,15.60787 L10.23971,15.47823 L10.2664,15.34894 L10.29406,15.22001 L10.32269,15.09145 L10.35227,14.96326 L10.38282,14.83544 L10.41431,14.70799 L10.44676,14.58092 L10.48015,14.45424 L10.51448,14.32795 L10.54975,14.20204 L10.58595,14.07653 L10.62309,13.95143 L10.66114,13.82672 L10.70012,13.70242 L10.74002,13.57854 L10.78083,13.45507 L10.82255,13.33202 L10.86517,13.20939 L10.9087,13.08719 L10.95312,12.96542 L10.99844,12.84409 L11.04464,12.7232 L11.09173,12.60275 L11.13971,12.48274 L11.18856,12.36319 L11.23828,12.2441 L11.28888,12.12546 L11.34034,12.00728 L11.39266,11.88958 L11.44584,11.77234 L11.49988,11.65558 L11.55476,11.5393 L11.61049,11.4235 L11.66706,11.30819 L11.72447,11.19337 L11.78272,11.07904 L11.84179,10.96521 L11.90169,10.85189 L11.96241,10.73907 L12.02395,10.62677 L12.08631,10.51497 L12.14947,10.4037 L12.21344,10.29295 L12.27821,10.18273 L12.34378,10.07303 L12.41015,9.96388 L12.4773,9.85526 L12.54525,9.74718 L12.61397,9.63965 L12.68347,9.53267 L12.75375,9.42624 L12.8248,9.32038 L12.89661,9.21507 L12.96919,9.11033 L13.04252,9.00616 L13.11661,8.90257 L13.19146,8.79955 L13.26704,8.69712 L13.34337,8.59527 L13.42044,8.49402 L13.49824,8.39336 L13.57678,8.29329 L13.65604,8.19383 L13.73602,8.09497 L13.81673,7.99673 L13.89814,7.89909 L13.98027,7.80208 L14.06311,7.70569 L14.14664,7.60992 L14.23088,7.51478 L14.31581,7.42028 L14.40144,7.32642 L14.48775,7.23319 L14.57474,7.14062 L14.66241,7.04869 L14.75076,6.95742 L14.83978,6.8668 L14.92947,6.77685 L15.01982,6.68756 L15.11083,6.59894 L15.20249,6.51099 L15.29481,6.42373 L15.38777,6.33714 L15.48138,6.25124 L15.57562,6.16603 L15.6705,6.08151 L15.76602,5.99769 L15.86216,5.91457 L15.95892,5.83216 L16.0563,5.75045 L16.1543,5.66946 L16.25291,5.58919 L16.35213,5.50964 L16.45195,5.43081 L16.55238,5.35271 L16.65339,5.27534 L16.755,5.19872 L16.8572,5.12283 L16.95998,5.04769 L17.06334,4.9733 L17.16728,4.89966 L17.27179,4.82677 L17.37687,4.75465 L17.48251,4.68329 L17.58871,4.61271 L17.69547,4.54289 L17.80278,4.47385 L17.91063,4.40559 L18.01904,4.33812 L18.12798,4.27144 L18.23746,4.20555 L18.34747,4.14045 L18.458,4.07616 L18.56907,4.01267 L18.68065,3.94999 L18.79275,3.88812 L18.90536,3.82706 L19.01848,3.76683 L19.13211,3.70743 L19.24623,3.64885 L19.36085,3.5911 L19.47597,3.53419 L19.59157,3.47812 L19.70766,3.4229 L19.82423,3.36852 L19.94127,3.31499 L20.05879,3.26233 L20.17678,3.21052 L20.29523,3.15957 L20.41414,3.1095 L20.53351,3.06029 L20.65333,3.01197 L20.7736,2.96452 L20.89432,2.91795 L21.01547,2.87228 L21.13707,2.82749 L21.25909,2.78361 L21.38155,2.74062 L21.50443,2.69853 L21.62773,2.65736 L21.75145,2.61709 L21.87558,2.57775 L22.00012,2.53932 L22.12507,2.50181 L22.25041,2.46523 L22.37616,2.42959 L22.50229,2.39488 L22.62882,2.36111 L22.75573,2.32828 L22.88303,2.2964 L23.0107,2.26547 L23.13874,2.2355 L23.26716,2.20649 L23.39594,2.17844 L23.52508,2.15135 L23.65458,2.12524 L23.78443,2.10011 L23.91463,2.07595 L24.04518,2.05278 L24.17607,2.03059 L24.3073,2.0094 L24.43886,1.9892 L24.57075,1.97 L24.70296,1.9518 L24.8355,1.93461 L24.96836,1.91843 L25.10153,1.90327 L25.23501,1.88912 L25.36879,1.876 L25.50288,1.8639 L25.63727,1.85284 L25.77195,1.84281 L25.90691,1.83382 L26.04217,1.82587 L26.17771,1.81897 L26.31352,1.81312 L26.44961,1.80833 L26.58598,1.80459 L26.7226,1.80192 L26.85949,1.80031 L26.99664,1.79977 L27.13379,1.80031 L27.27067,1.80192 L27.4073,1.80459 L27.54366,1.80833 L27.67975,1.81312 L27.81557,1.81897 L27.95111,1.82587 L28.08636,1.83382 L28.22133,1.84281 L28.35601,1.85284 L28.4904,1.8639 L28.62448,1.876 L28.75827,1.88912 L28.89175,1.90327 L29.02492,1.91843 L29.15778,1.93461 L29.29031,1.9518 L29.42253,1.97 L29.55442,1.9892 L29.68598,2.0094 L29.81721,2.03059 L29.9481,2.05278 L30.07864,2.07595 L30.20885,2.10011 L30.3387,2.12524 L30.4682,2.15135 L30.59734,2.17844 L30.72612,2.20649 L30.85453,2.2355 L30.98258,2.26547 L31.11025,2.2964 L31.23754,2.32828 L31.36446,2.36111 L31.49098,2.39488 L31.61712,2.42959 L31.74286,2.46523 L31.86821,2.50181 L31.99316,2.53932 L32.1177,2.57775 L32.24183,2.61709 L32.36555,2.65736 L32.48885,2.69853 L32.61173,2.74062 L32.73419,2.78361 L32.85621,2.82749 L32.97781,2.87228 L33.09896,2.91795 L33.21968,2.96452 L33.33995,3.01197 L33.45977,3.06029 L33.57914,3.1095 L33.69805,3.15957 L33.8165,3.21052 L33.93449,3.26233 L34.052,3.31499 L34.16905,3.36852 L34.28562,3.4229 L34.40171,3.47812 L34.51731,3.53419 L34.63242,3.5911 L34.74704,3.64885 L34.86117,3.70743 L34.97479,3.76683 L35.08792,3.82706 L35.20053,3.88812 L35.31263,3.94999 L35.42421,4.01267 L35.53527,4.07616 L35.64581,4.14045 L35.75582,4.20555 L35.8653,4.27144 L35.97424,4.33812 L36.08264,4.40559 L36.1905,4.47385 L36.29781,4.54289 L36.40457,4.61271 L36.51077,4.68329 L36.61641,4.75465 L36.72149,4.82677 L36.826,4.89966 L36.92993,4.9733 L37.03329,5.04769 L37.13608,5.12283 L37.23827,5.19872 L37.33988,5.27534 L37.4409,5.35271 L37.54132,5.43081 L37.64115,5.50964 L37.74036,5.58919 L37.83897,5.66946 L37.93697,5.75045 L38.03436,5.83216 L38.13112,5.91457 L38.22726,5.99769 L38.32278,6.08151 L38.41766,6.16603 L38.5119,6.25124 L38.60551,6.33714 L38.69847,6.42373 L38.79079,6.51099 L38.88245,6.59894 L38.97346,6.68756 L39.06381,6.77685 L39.1535,6.8668 L39.24252,6.95742 L39.33086,7.04869 L39.41854,7.14062 L39.50553,7.23319 L39.59184,7.32642 L39.67746,7.42028 L39.7624,7.51478 L39.84663,7.60992 L39.93017,7.70569 L40.01301,7.80208 L40.09514,7.89909 L40.17655,7.99673 L40.25726,8.09497 L40.33724,8.19383 L40.4165,8.29329 L40.49503,8.39336 L40.57284,8.49402 L40.64991,8.59527 L40.72624,8.69712 L40.80182,8.79955 L40.87666,8.90257 L40.95075,9.00616 L41.02409,9.11033 L41.09667,9.21507 L41.16848,9.32038 L41.23953,9.42624 L41.3098,9.53267 L41.37931,9.63965 L41.44803,9.74718 L41.51597,9.85526 L41.58313,9.96388 L41.64949,10.07303 L41.71507,10.18273 L41.77984,10.29295 L41.84381,10.4037 L41.90697,10.51497 L41.96933,10.62677 L42.03087,10.73907 L42.09159,10.85189 L42.15149,10.96521 L42.21056,11.07904 L42.26881,11.19337 L42.32622,11.30819 L42.38279,11.4235 L42.43852,11.5393 L42.4934,11.65558 L42.54744,11.77234 L42.60062,11.88958 L42.65294,12.00728 L42.7044,12.12546 L42.75499,12.2441 L42.80472,12.36319 L42.85357,12.48274 L42.90154,12.60275 L42.94864,12.7232 L42.99484,12.84409 L43.04016,12.96542 L43.08458,13.08719 L43.12811,13.20939 L43.17073,13.33202 L43.21245,13.45507 L43.25326,13.57854 L43.29316,13.70242 L43.33213,13.82672 L43.37019,13.95143 L43.40732,14.07653 L43.44353,14.20204 L43.4788,14.32795 L43.51313,14.45424 L43.54652,14.58092 L43.57896,14.70799 L43.61046,14.83544 L43.64101,14.96326 L43.67059,15.09145 L43.69922,15.22001 L43.72688,15.34894 L43.75357,15.47823 L43.77929,15.60787 L43.80403,15.73786 L43.82779,15.8682 L43.85057,15.99889 L43.87235,16.12991 L43.89315,16.26128 L43.91294,16.39297 L43.93174,16.52499 L43.94953,16.65734 L43.96632,16.79001 L43.98209,16.92299 L43.99684,17.05628 L44.01057,17.18989 L44.02328,17.32379 L44.03496,17.458 L44.04561,17.59251 L44.05522,17.7273 L44.06379,17.86239 L44.07132,17.99776 Z"/>
</svg>
