<svg xmlns="http://www.w3.org/2000/svg" viewBox="0 0 39.79436 37.79529">
  <path fill="black" fill-rule="evenodd" d="M35.81384,7.18504 L37.13999,7.18504 L37.13999,6.32238 L39.79023,6.33081 L39.79436,5.00466 L37.13999,4.99624 L37.13999,4.58299 L35.81384,4.58299 L35.81384,4.99203 L29.18308,4.97099 L29.18308,11.91204 L28.52558,12.35035 L26.24168,12.50295 L26.88302,13.44531 L25.53617,14.34315 L25.53617,12.26689 L24.21002,12.26689 L24.21002,25.5284 L25.53617,25.5284 L25.53617,23.45215 L29.18308,25.88325 L29.18308,32.8212 L35.81384,32.83188 L35.81384,33.20402 L37.13999,33.20402 L37.13999,32.83402 L39.79125,32.83829 L39.79333,31.51214 L37.13999,31.50784 L37.13999,30.60248 L35.81384,30.60248 L35.81384,31.5057 L30.50923,31.49712 L30.50923,25.17355 L25.53617,21.85818 L25.53617,15.93712 L27.62923,14.54175 L28.276,15.49209 L29.27682,13.44335 L30.50923,12.62174 L30.50923,6.30129 L35.81384,6.31816 L35.81384,7.18504 Z M0.01554,32.93878 L2.66007,32.90777 L2.66007,33.21231 L3.98622,33.21231 L3.98622,32.89222 L10.61697,32.81446 L10.61697,22.8761 L14.34211,22.8761 L11.02673,16.24535 L14.06497,16.24535 L14.06497,14.9192 L10.61697,14.9192 L10.61697,4.96737 L3.98622,5.02238 L3.98622,4.59128 L2.66007,4.59128 L2.66007,5.03338 L0.00207,5.05543 L0.01347,6.38158 L2.66007,6.35971 L2.66007,7.19281 L3.98622,7.19281 L3.98622,6.34875 L9.29082,6.30491 L9.29082,14.9192 L5.84283,14.9192 L5.84283,16.24535 L8.88106,16.24535 L6.04538,21.91671 L5.56568,22.8761 L9.29082,22.8761 L9.29082,31.50385 L3.98622,31.56596 L3.98622,30.61025 L2.66007,30.61025 L2.66007,31.58149 L0,31.61263 L0.01554,32.93878 Z M9.9539,17.06487 L12.19644,21.54995 L7.71136,21.54995 L9.9539,17.06487 Z M15.50767,22.8761 L19.78067,22.8761 L19.78067,24.19694 L23.2154,22.21302 L19.78067,20.2291 L19.78067,21.54995 L15.50767,21.54995 L15.50767,22.8761 Z M15.50767,16.24535 L19.78067,16.24535 L19.78067,17.56619 L23.2154,15.58227 L19.78067,13.59835 L19.78067,14.9192 L15.50767,14.9192 L15.50767,16.24535 Z M35.81384,1.32615 L35.81384,1.98923 L37.13999,1.98923 L37.13999,0 L35.15076,0 L35.15076,1.32615 L35.81384,1.32615 Z M7.43421,0 L7.43421,1.32615 L10.20566,1.32615 L10.20566,0 L7.43421,0 Z M12.97763,0 L12.97763,1.32615 L15.74907,1.32615 L15.74907,0 L12.97763,0 Z M18.52104,0 L18.52104,1.32615 L21.29249,1.32615 L21.29249,0 L18.52104,0 Z M24.06393,0 L24.06393,1.32615 L26.8359,1.32615 L26.8359,0 L24.06393,0 Z M29.60735,0 L29.60735,1.32615 L32.37931,1.32615 L32.37931,0 L29.60735,0 Z M2.66007,0 L2.66007,1.98923 L3.98622,1.98923 L3.98622,1.32615 L4.6493,1.32615 L4.6493,0 L2.66007,0 Z M2.66007,25.40615 L2.66007,28.0082 L3.98622,28.0082 L3.98622,25.40615 L2.66007,25.40615 Z M2.66007,20.20256 L2.66007,22.80461 L3.98622,22.80461 L3.98622,20.20256 L2.66007,20.20256 Z M2.66007,14.99897 L2.66007,17.6005 L3.98622,17.6005 L3.98622,14.99897 L2.66007,14.99897 Z M2.66007,9.79487 L2.66007,12.39692 L3.98622,12.39692 L3.98622,9.79487 L2.66007,9.79487 Z M2.66007,35.80607 L2.66007,37.79529 L4.6493,37.79529 L4.6493,36.46914 L3.98622,36.46914 L3.98622,35.80607 L2.66007,35.80607 Z M7.42074,36.46914 L7.42074,37.79529 L10.19271,37.79529 L10.19271,36.46914 L7.42074,36.46914 Z M12.96416,36.46914 L12.96416,37.79529 L15.73612,37.79529 L15.73612,36.46914 L12.96416,36.46914 Z M18.50757,36.46914 L18.50757,37.79529 L21.27902,37.79529 L21.27902,36.46914 L18.50757,36.46914 Z M24.05098,36.46914 L24.05098,37.79529 L26.82243,37.79529 L26.82243,36.46914 L24.05098,36.46914 Z M29.5944,36.46914 L29.5944,37.79529 L32.36585,37.79529 L32.36585,36.46914 L29.5944,36.46914 Z M35.15076,36.46914 L35.15076,37.79529 L37.13999,37.79529 L37.13999,35.80607 L35.81384,35.80607 L35.81384,36.46914 L35.15076,36.46914 Z M35.81384,25.39838 L35.81384,28.00043 L37.13999,28.00043 L37.13999,25.39838 L35.81384,25.39838 Z M35.81384,20.19479 L35.81384,22.79632 L37.13999,22.79632 L37.13999,20.19479 L35.81384,20.19479 Z M35.81384,14.99068 L35.81384,17.59273 L37.13999,17.59273 L37.13999,14.99068 L35.81384,14.99068 Z M35.81384,9.78709 L35.81384,12.38915 L37.13999,12.38915 L37.13999,9.78709 L35.81384,9.78709 Z"/>
</svg>
