<svg xmlns="http://www.w3.org/2000/svg" viewBox="0 0 54.75719 37.79529">
  <path fill="black" fill-rule="evenodd" d="M38.14109,36.50479 L39.43159,37.79529 L48.55779,28.6691 L47.26729,27.3786 L43.34944,31.29645 L36.42636,24.37337 L46.54361,24.37337 L46.54361,17.52872 L54.75719,17.52872 L54.75719,15.70348 L46.54361,15.70348 L46.54361,8.85883 L20.91183,8.85883 L12.053,0 L10.7625,1.2905 L18.33082,8.85883 L8.21358,8.85883 L8.21358,15.70348 L0,15.70348 L0,17.52872 L8.21358,17.52872 L8.21358,24.37337 L33.84536,24.37337 L42.05894,32.58695 L38.14109,36.50479 Z M32.02012,22.54813 L10.03882,22.54813 L10.03882,10.68407 L20.15606,10.68407 L32.02012,22.54813 Z M44.71837,22.54813 L34.60112,22.54813 L22.73707,10.68407 L44.71837,10.68407 L44.71837,22.54813 Z"/>
</svg>
